<svg xmlns="http://www.w3.org/2000/svg" fill="none" viewBox="0 0 64 64"><path fill="url(#a)" d="M2 16C2 9.37258 7.37258 4 14 4H50C56.6274 4 62 9.37258 62 16H2Z"/><path fill="url(#b)" fill-rule="evenodd" d="M2 20V36C2 42.6274 7.37258 48 14 48H14.2489C14.0852 47.0244 14 46.0221 14 45C14 35.0589 22.0589 27 32 27C41.9411 27 50 35.0589 50 45C50 46.0221 49.9148 47.0244 49.7511 48H50C56.6274 48 62 42.6274 62 36V20H2ZM7 27C7 25.8954 7.89543 25 9 25H17C18.1046 25 19 25.8954 19 27C19 28.1046 18.1046 29 17 29H9C7.89543 29 7 28.1046 7 27Z" clip-rule="evenodd"/><path fill="url(#c)" fill-rule="evenodd" d="M17 45C17 36.7157 23.7157 30 32 30C40.2843 30 47 36.7157 47 45C47 53.2843 40.2843 60 32 60C23.7157 60 17 53.2843 17 45ZM30.4142 37.5858C29.6332 36.8047 28.3668 36.8047 27.5858 37.5858L23.5858 41.5858C23.0138 42.1578 22.8427 43.018 23.1522 43.7654C23.4618 44.5127 24.1911 45 25 45L35 45C36.1046 45 37 44.1046 37 43C37 41.8954 36.1046 41 35 41H29.8284L30.4142 40.4142C31.1953 39.6332 31.1953 38.3668 30.4142 37.5858ZM40.4142 49.4142L36.4142 53.4142C35.6332 54.1953 34.3668 54.1953 33.5858 53.4142C32.8047 52.6332 32.8047 51.3668 33.5858 50.5858L34.1716 50H29C27.8954 50 27 49.1046 27 48C27 46.8954 27.8954 46 29 46L39 46C39.8089 46 40.5382 46.4873 40.8478 47.2346C41.1573 47.982 40.9862 48.8422 40.4142 49.4142Z" clip-rule="evenodd"/><defs><linearGradient id="a" x1="78.644" x2="29.616" y1="71.315" y2="9.861" gradientUnits="userSpaceOnUse"><stop offset=".003" stop-color="#FF37DF"/><stop offset="1" stop-color="#6E00FF"/></linearGradient><linearGradient id="b" x1="78.644" x2="29.616" y1="71.315" y2="9.861" gradientUnits="userSpaceOnUse"><stop offset=".003" stop-color="#FF37DF"/><stop offset="1" stop-color="#6E00FF"/></linearGradient><linearGradient id="c" x1="78.644" x2="29.616" y1="71.315" y2="9.861" gradientUnits="userSpaceOnUse"><stop offset=".003" stop-color="#FF37DF"/><stop offset="1" stop-color="#6E00FF"/></linearGradient></defs></svg>